<svg xmlns="http://www.w3.org/2000/svg" viewBox="0 0 800 1000" role="img" aria-label="Illustrated concert scene: a silhouetted crowd faces a stage under magenta and amber lights.">
  <defs>
    <radialGradient id="glowA" cx="30%" cy="20%" r="55%">
      <stop offset="0%" stop-color="#e5486f" stop-opacity="0.9"/>
      <stop offset="100%" stop-color="#e5486f" stop-opacity="0"/>
    </radialGradient>
    <radialGradient id="glowB" cx="75%" cy="15%" r="55%">
      <stop offset="0%" stop-color="#f0883e" stop-opacity="0.85"/>
      <stop offset="100%" stop-color="#f0883e" stop-opacity="0"/>
    </radialGradient>
  </defs>
  <rect width="800" height="1000" fill="#0d1117"/>
  <rect width="800" height="1000" fill="url(#glowA)"/>
  <rect width="800" height="1000" fill="url(#glowB)"/>
  <g fill="#f0f6fc" opacity="0.9">
    <circle cx="120" cy="140" r="2"/>
    <circle cx="640" cy="90" r="2"/>
    <circle cx="700" cy="220" r="1.5"/>
    <circle cx="90" cy="260" r="1.5"/>
    <circle cx="420" cy="60" r="2"/>
  </g>
  <g fill="#05070a">
    <rect x="360" y="360" width="80" height="260" rx="18"/>
    <circle cx="400" cy="330" r="34"/>
    <rect x="382" y="390" width="8" height="120"/>
    <rect x="410" y="390" width="8" height="120"/>
  </g>
  <g fill="#05070a" opacity="0.95">
    <ellipse cx="120" cy="880" rx="90" ry="70"/>
    <ellipse cx="260" cy="910" rx="110" ry="85"/>
    <ellipse cx="420" cy="920" rx="120" ry="90"/>
    <ellipse cx="590" cy="905" rx="110" ry="85"/>
    <ellipse cx="730" cy="875" rx="90" ry="70"/>
  </g>
  <rect x="80" y="330" width="640" height="10" fill="#1f2328"/>
</svg>
